<?xml version="1.0" encoding="UTF-8" standalone="no"?>
<!DOCTYPE svg PUBLIC "-//W3C//DTD SVG 1.1//EN"
 "http://www.w3.org/Graphics/SVG/1.1/DTD/svg11.dtd">
<!-- Generated by graphviz version 2.40.1 (20161225.0304)
 -->
<!-- Title: dependencies Pages: 1 -->
<svg width="908pt" height="284pt"
 viewBox="0.00 0.00 908.00 284.00" xmlns="http://www.w3.org/2000/svg" xmlns:xlink="http://www.w3.org/1999/xlink">
<g id="graph0" class="graph" transform="scale(1 1) rotate(0) translate(4 280)">
<title>dependencies</title>
<polygon fill="#ffffff" stroke="transparent" points="-4,4 -4,-280 904,-280 904,4 -4,4"/>
<text text-anchor="start" x="429.0091" y="-42.4" font-family="sans-serif" font-weight="bold" font-size="14.00" fill="#000000">Legend</text>
<polygon fill="#ffffb3" stroke="transparent" points="216,-10 216,-30 236,-30 236,-10 216,-10"/>
<text text-anchor="start" x="239.629" y="-15.4" font-family="sans-serif" font-size="14.00" fill="#000000"> &#160;Declarations</text>
<polygon fill="#8dd3c7" stroke="transparent" points="329,-10 329,-30 349,-30 349,-10 329,-10"/>
<text text-anchor="start" x="352.7251" y="-15.4" font-family="sans-serif" font-size="14.00" fill="#000000"> &#160;Module</text>
<polygon fill="#80b1d3" stroke="transparent" points="415,-10 415,-30 435,-30 435,-10 415,-10"/>
<text text-anchor="start" x="438.7812" y="-15.4" font-family="sans-serif" font-size="14.00" fill="#000000"> &#160;Bootstrap</text>
<polygon fill="#fdb462" stroke="transparent" points="512,-10 512,-30 532,-30 532,-10 512,-10"/>
<text text-anchor="start" x="535.6732" y="-15.4" font-family="sans-serif" font-size="14.00" fill="#000000"> &#160;Providers</text>
<polygon fill="#fb8072" stroke="transparent" points="608,-10 608,-30 628,-30 628,-10 608,-10"/>
<text text-anchor="start" x="631.7258" y="-15.4" font-family="sans-serif" font-size="14.00" fill="#000000"> &#160;Exports</text>
<g id="clust1" class="cluster">
<title>cluster_AppModule</title>
<polygon fill="none" stroke="#000000" stroke-dasharray="1,5" points="8,-70 8,-268 892,-268 892,-70 8,-70"/>
</g>
<g id="clust2" class="cluster">
<title>cluster_AppModule_declarations</title>
<polygon fill="none" stroke="#000000" points="486,-78 486,-130 884,-130 884,-78 486,-78"/>
</g>
<g id="clust6" class="cluster">
<title>cluster_AppModule_imports</title>
<polygon fill="none" stroke="#000000" points="356,-78 356,-130 478,-130 478,-78 356,-78"/>
</g>
<g id="clust8" class="cluster">
<title>cluster_AppModule_bootstrap</title>
<polygon fill="none" stroke="#000000" points="424,-208 424,-260 548,-260 548,-208 424,-208"/>
</g>
<g id="clust9" class="cluster">
<title>cluster_AppModule_providers</title>
<polygon fill="none" stroke="#000000" points="16,-78 16,-130 348,-130 348,-78 16,-78"/>
</g>
<!-- AppComponent -->
<g id="node1" class="node">
<title>AppComponent</title>
<polygon fill="#ffffb3" stroke="#000000" points="875.9399,-122 770.0601,-122 770.0601,-86 875.9399,-86 875.9399,-122"/>
<text text-anchor="middle" x="823" y="-99.8" font-family="Times,serif" font-size="14.00" fill="#000000">AppComponent</text>
</g>
<!-- AppModule -->
<g id="node4" class="node">
<title>AppModule</title>
<polygon fill="#8dd3c7" stroke="#000000" points="527.6571,-187 524.6571,-191 503.6571,-191 500.6571,-187 444.3429,-187 444.3429,-151 527.6571,-151 527.6571,-187"/>
<text text-anchor="middle" x="486" y="-164.8" font-family="Times,serif" font-size="14.00" fill="#000000">AppModule</text>
</g>
<!-- AppComponent&#45;&gt;AppModule -->
<g id="edge1" class="edge">
<title>AppComponent&#45;&gt;AppModule</title>
<path fill="none" stroke="#000000" d="M823,-122.2843C823,-143.3211 823,-175 823,-175 823,-175 537.6608,-175 537.6608,-175"/>
<polygon fill="#000000" stroke="#000000" points="537.6608,-171.5001 527.6608,-175 537.6608,-178.5001 537.6608,-171.5001"/>
</g>
<!-- ModalComponent -->
<g id="node2" class="node">
<title>ModalComponent</title>
<polygon fill="#ffffb3" stroke="#000000" points="751.8823,-122 634.1177,-122 634.1177,-86 751.8823,-86 751.8823,-122"/>
<text text-anchor="middle" x="693" y="-99.8" font-family="Times,serif" font-size="14.00" fill="#000000">ModalComponent</text>
</g>
<!-- ModalComponent&#45;&gt;AppModule -->
<g id="edge2" class="edge">
<title>ModalComponent&#45;&gt;AppModule</title>
<path fill="none" stroke="#000000" d="M693,-122.0225C693,-139.3734 693,-163 693,-163 693,-163 537.8895,-163 537.8895,-163"/>
<polygon fill="#000000" stroke="#000000" points="537.8896,-159.5001 527.8895,-163 537.8895,-166.5001 537.8896,-159.5001"/>
</g>
<!-- NavbarComponent -->
<g id="node3" class="node">
<title>NavbarComponent</title>
<polygon fill="#ffffb3" stroke="#000000" points="616.0297,-122 493.9703,-122 493.9703,-86 616.0297,-86 616.0297,-122"/>
<text text-anchor="middle" x="555" y="-99.8" font-family="Times,serif" font-size="14.00" fill="#000000">NavbarComponent</text>
</g>
<!-- NavbarComponent&#45;&gt;AppModule -->
<g id="edge3" class="edge">
<title>NavbarComponent&#45;&gt;AppModule</title>
<path fill="none" stroke="#000000" d="M510.7819,-122.1061C510.7819,-122.1061 510.7819,-140.991 510.7819,-140.991"/>
<polygon fill="#000000" stroke="#000000" points="507.282,-140.9909 510.7819,-150.991 514.282,-140.991 507.282,-140.9909"/>
</g>
<!-- AppComponent  -->
<g id="node6" class="node">
<title>AppComponent </title>
<polygon fill="#80b1d3" stroke="#000000" points="540.439,-252 431.561,-252 431.561,-216 540.439,-216 540.439,-252"/>
<text text-anchor="middle" x="486" y="-229.8" font-family="Times,serif" font-size="14.00" fill="#000000">AppComponent </text>
</g>
<!-- AppModule&#45;&gt;AppComponent  -->
<g id="edge5" class="edge">
<title>AppModule&#45;&gt;AppComponent </title>
<path fill="none" stroke="#000000" stroke-dasharray="1,5" d="M486,-187.1061C486,-187.1061 486,-205.991 486,-205.991"/>
<polygon fill="#000000" stroke="#000000" points="482.5001,-205.9909 486,-215.991 489.5001,-205.991 482.5001,-205.9909"/>
</g>
<!-- MaterialModule -->
<g id="node5" class="node">
<title>MaterialModule</title>
<polygon fill="#8dd3c7" stroke="#000000" points="470.4706,-122 467.4706,-126 446.4706,-126 443.4706,-122 363.5294,-122 363.5294,-86 470.4706,-86 470.4706,-122"/>
<text text-anchor="middle" x="417" y="-99.8" font-family="Times,serif" font-size="14.00" fill="#000000">MaterialModule</text>
</g>
<!-- MaterialModule&#45;&gt;AppModule -->
<g id="edge4" class="edge">
<title>MaterialModule&#45;&gt;AppModule</title>
<path fill="none" stroke="#000000" d="M457.3286,-122.1061C457.3286,-122.1061 457.3286,-140.991 457.3286,-140.991"/>
<polygon fill="#000000" stroke="#000000" points="453.8286,-140.9909 457.3286,-150.991 460.8286,-140.991 453.8286,-140.9909"/>
</g>
<!-- MarvelInterceptor -->
<g id="node7" class="node">
<title>MarvelInterceptor</title>
<ellipse fill="#fdb462" stroke="#000000" cx="259" cy="-104" rx="81.0571" ry="18"/>
<text text-anchor="middle" x="259" y="-99.8" font-family="Times,serif" font-size="14.00" fill="#000000">MarvelInterceptor</text>
</g>
<!-- MarvelInterceptor&#45;&gt;AppModule -->
<g id="edge6" class="edge">
<title>MarvelInterceptor&#45;&gt;AppModule</title>
<path fill="none" stroke="#000000" d="M259,-122.0225C259,-139.3734 259,-163 259,-163 259,-163 434.1002,-163 434.1002,-163"/>
<polygon fill="#000000" stroke="#000000" points="434.1002,-166.5001 444.1002,-163 434.1001,-159.5001 434.1002,-166.5001"/>
</g>
<!-- MarvelService -->
<g id="node8" class="node">
<title>MarvelService</title>
<ellipse fill="#fdb462" stroke="#000000" cx="92" cy="-104" rx="67.7529" ry="18"/>
<text text-anchor="middle" x="92" y="-99.8" font-family="Times,serif" font-size="14.00" fill="#000000">MarvelService</text>
</g>
<!-- MarvelService&#45;&gt;AppModule -->
<g id="edge7" class="edge">
<title>MarvelService&#45;&gt;AppModule</title>
<path fill="none" stroke="#000000" d="M92,-122.2843C92,-143.3211 92,-175 92,-175 92,-175 434.2081,-175 434.2081,-175"/>
<polygon fill="#000000" stroke="#000000" points="434.2081,-178.5001 444.2081,-175 434.2081,-171.5001 434.2081,-178.5001"/>
</g>
</g>
</svg>
